<?xml version="1.0" encoding="UTF-8"?>
<!DOCTYPE svg PUBLIC "-//W3C//DTD SVG 1.1//EN" "http://www.w3.org/Graphics/SVG/1.1/DTD/svg11.dtd">
<!-- Creator: CorelDRAW X7 -->
<svg xmlns="http://www.w3.org/2000/svg" xml:space="preserve" width="0.756945in" height="0.756945in" version="1.1" style="shape-rendering:geometricPrecision; text-rendering:geometricPrecision; image-rendering:optimizeQuality; fill-rule:evenodd; clip-rule:evenodd"
viewBox="0 0 176 176"
 xmlns:xlink="http://www.w3.org/1999/xlink">
 <defs>
  <style type="text/css">
   <![CDATA[
    .str0 {stroke:#504F5B;stroke-width:6.45403}
    .fil2 {fill:none}
    .fil0 {fill:#FEFEFE}
    .fil1 {fill:#504F5B}
   ]]>
  </style>
   <clipPath id="id0">
    <path d="M88 3c47,0 85,38 85,85 0,47 -38,85 -85,85 -47,0 -85,-38 -85,-85 0,-47 38,-85 85,-85z"/>
   </clipPath>
 </defs>
 <g id="Layer_x0020_1">
  <metadata id="CorelCorpID_0Corel-Layer"/>
  <path class="fil0" d="M88 3c47,0 85,38 85,85 0,47 -38,85 -85,85 -47,0 -85,-38 -85,-85 0,-47 38,-85 85,-85z"/>
  <g style="clip-path:url(#id0)">
   <g id="_2411338315696">
    <path id="1" class="fil1" d="M28 76l21 -1c1,3 2,6 3,8 2,3 6,4 10,4 3,0 6,-1 7,-2 2,-2 3,-3 3,-5 0,-2 -1,-4 -2,-5 -2,-2 -6,-3 -12,-5 -10,-2 -17,-5 -21,-8 -4,-4 -6,-9 -6,-14 0,-4 1,-8 3,-11 2,-3 5,-6 10,-8 4,-2 10,-3 18,-3 9,0 16,2 21,6 5,3 7,9 8,16l-21 1c0,-3 -1,-5 -3,-7 -2,-1 -4,-2 -8,-2 -2,0 -4,0 -5,2 -2,1 -2,2 -2,4 0,1 0,2 1,3 1,1 4,1 8,2 9,2 16,5 21,7 3,1 5,3 7,5 1,1 0,1 1,1 5,-7 44,-64 42,-60l-57 96c-2,3 -11,4 -21,2 -8,-1 -16,-5 -21,-12 -3,-4 -4,-8 -5,-14z"/>
    <path class="fil1" d="M41 168l53 -92 29 0c7,0 12,2 16,5 4,3 5,8 5,13 0,4 -1,8 -4,11 -1,2 -4,3 -7,5 5,1 9,3 11,6 3,3 4,7 4,11 0,4 -1,7 -3,10 -2,3 -4,6 -7,8 -2,1 -5,1 -8,2 -5,1 -9,1 -10,1l-39 0 0 -38 -40 58zm63 -64l9 0c4,0 6,0 8,-2 1,-1 2,-3 2,-5 0,-2 -1,-4 -2,-5 -2,-1 -4,-2 -8,-2l-9 0 0 14zm0 28l11 0c4,0 7,0 8,-2 2,-1 2,-3 2,-5 0,-2 0,-4 -2,-5 -1,-2 -4,-2 -8,-2l-11 0 0 14z"/>
   </g>
  </g>
  <path class="fil2 str0" d="M88 3c47,0 85,38 85,85 0,47 -38,85 -85,85 -47,0 -85,-38 -85,-85 0,-47 38,-85 85,-85z"/>
 </g>
</svg>
